<mxfile host="app.diagrams.net" modified="2023-09-19T12:09:32.650Z" agent="Mozilla/5.0 (Windows NT 10.0; Win64; x64; rv:109.0) Gecko/20100101 Firefox/117.0" etag="OUWRr2q-b2Oz6EWJslWE" version="21.7.5" type="github">
  <diagram name="Page-1" id="4aeB6z92RJJiPWzYteNc">
    <mxGraphModel dx="1434" dy="681" grid="1" gridSize="10" guides="1" tooltips="1" connect="1" arrows="1" fold="1" page="1" pageScale="1" pageWidth="827" pageHeight="1169" math="0" shadow="0">
      <root>
        <mxCell id="0" />
        <mxCell id="1" parent="0" />
        <mxCell id="lYLlhKWeRg74tEbyo-01-36" value="" style="rounded=0;whiteSpace=wrap;html=1;fillColor=none;strokeColor=#82b366;strokeWidth=3;" vertex="1" parent="1">
          <mxGeometry x="20" y="60" width="415.5" height="164" as="geometry" />
        </mxCell>
        <mxCell id="lYLlhKWeRg74tEbyo-01-30" value="" style="rounded=0;whiteSpace=wrap;html=1;fillColor=none;strokeColor=#b85450;strokeWidth=3;" vertex="1" parent="1">
          <mxGeometry x="440.24" y="60" width="314" height="164" as="geometry" />
        </mxCell>
        <mxCell id="lYLlhKWeRg74tEbyo-01-37" value="WebSonic" style="rounded=0;whiteSpace=wrap;html=1;fillColor=#d5e8d4;strokeColor=#82b366;" vertex="1" parent="1">
          <mxGeometry x="346.99906976744194" y="190" width="88.48372093023256" height="32" as="geometry" />
        </mxCell>
        <mxCell id="lYLlhKWeRg74tEbyo-01-39" value="Serveur" style="rounded=1;whiteSpace=wrap;html=1;" vertex="1" parent="1">
          <mxGeometry x="462.24" y="127" width="120" height="30" as="geometry" />
        </mxCell>
        <mxCell id="lYLlhKWeRg74tEbyo-01-29" value="Sites web" style="rounded=1;whiteSpace=wrap;html=1;" vertex="1" parent="1">
          <mxGeometry x="612.24" y="127" width="120" height="30" as="geometry" />
        </mxCell>
        <mxCell id="lYLlhKWeRg74tEbyo-01-32" value="" style="endArrow=classic;html=1;rounded=0;exitX=1;exitY=0.5;exitDx=0;exitDy=0;entryX=0;entryY=0.5;entryDx=0;entryDy=0;" edge="1" parent="1" source="lYLlhKWeRg74tEbyo-01-39" target="lYLlhKWeRg74tEbyo-01-29">
          <mxGeometry width="50" height="50" relative="1" as="geometry">
            <mxPoint x="417" y="140" as="sourcePoint" />
            <mxPoint x="700" y="340" as="targetPoint" />
          </mxGeometry>
        </mxCell>
        <mxCell id="lYLlhKWeRg74tEbyo-01-31" value="Client" style="rounded=0;whiteSpace=wrap;html=1;fillColor=#f8cecc;strokeColor=#b85450;" vertex="1" parent="1">
          <mxGeometry x="670" y="190" width="82" height="32" as="geometry" />
        </mxCell>
        <mxCell id="lYLlhKWeRg74tEbyo-01-51" value="" style="group" vertex="1" connectable="0" parent="1">
          <mxGeometry x="30" y="80" width="384" height="60" as="geometry" />
        </mxCell>
        <mxCell id="lYLlhKWeRg74tEbyo-01-40" value="Composants front-end" style="rounded=1;whiteSpace=wrap;html=1;" vertex="1" parent="lYLlhKWeRg74tEbyo-01-51">
          <mxGeometry width="160" height="38.18181818181818" as="geometry" />
        </mxCell>
        <mxCell id="lYLlhKWeRg74tEbyo-01-41" value="Composants back-end" style="rounded=1;whiteSpace=wrap;html=1;" vertex="1" parent="lYLlhKWeRg74tEbyo-01-51">
          <mxGeometry x="224" width="160" height="38.18181818181818" as="geometry" />
        </mxCell>
        <mxCell id="lYLlhKWeRg74tEbyo-01-44" value="" style="endArrow=classic;startArrow=classic;html=1;rounded=0;exitX=1;exitY=0.5;exitDx=0;exitDy=0;entryX=0;entryY=0.5;entryDx=0;entryDy=0;" edge="1" parent="lYLlhKWeRg74tEbyo-01-51" source="lYLlhKWeRg74tEbyo-01-40" target="lYLlhKWeRg74tEbyo-01-41">
          <mxGeometry width="50" height="50" relative="1" as="geometry">
            <mxPoint x="376" y="130.9090909090909" as="sourcePoint" />
            <mxPoint x="426" y="103.63636363636364" as="targetPoint" />
          </mxGeometry>
        </mxCell>
        <mxCell id="lYLlhKWeRg74tEbyo-01-50" value="" style="endArrow=classic;html=1;rounded=0;entryX=0;entryY=0.5;entryDx=0;entryDy=0;" edge="1" parent="lYLlhKWeRg74tEbyo-01-51">
          <mxGeometry width="50" height="50" relative="1" as="geometry">
            <mxPoint x="188" y="19.09090909090909" as="sourcePoint" />
            <mxPoint x="430.24" y="60" as="targetPoint" />
            <Array as="points">
              <mxPoint x="188" y="60" />
            </Array>
          </mxGeometry>
        </mxCell>
      </root>
    </mxGraphModel>
  </diagram>
</mxfile>
